# xmcd
#
# Track frame offsets: 
#        150
#        35220
#        74145
#
# Disc length: 1308 seconds
#
# Revision: 3
# Processed by: cddbd v1.4PL0 Copyright (c) Steve Scherf et al.
# Submitted via: ExactAudioCopy v0.90b4
#
DISCID=2e051a03
DTITLE=Cut Chemist and Madlib - Bunky's Pick and 6 Variations Of In The Ra
DTITLE=in
DYEAR=2001
DGENRE=Hip-Hop
TTITLE0=Cut Chemist - Bunky's Pick
TTITLE1=Madlib - 6 Variations Of In The Rain
TTITLE2=Billy Wooten - In The Rain
EXTD=
EXTT0=
EXTT1=
EXTT2=
PLAYORDER=
